<svg width="640" height="480" viewBox="0 0 640 480" fill="none" xmlns="http://www.w3.org/2000/svg">
  <rect width="640" height="480" rx="40" fill="#F0FDF4"/>
  <rect x="60" y="80" width="520" height="320" rx="28" fill="#FFFFFF" stroke="#BBF7D0" stroke-width="2"/>
  <rect x="110" y="130" width="420" height="220" rx="20" fill="#ECFDF5"/>
  <rect x="140" y="160" width="140" height="160" rx="16" fill="#D1FAE5"/>
  <rect x="180" y="190" width="60" height="100" rx="8" fill="#10B981"/>
  <rect x="300" y="185" width="200" height="20" rx="10" fill="#34D399"/>
  <rect x="300" y="220" width="160" height="16" rx="8" fill="#A7F3D0"/>
  <rect x="300" y="250" width="120" height="16" rx="8" fill="#6EE7B7"/>
  <rect x="300" y="280" width="90" height="16" rx="8" fill="#86EFAC"/>
  <circle cx="200" cy="340" r="34" fill="#D1FAE5"/>
  <circle cx="160" cy="110" r="24" fill="#6EE7B7" opacity="0.5"/>
  <circle cx="520" cy="110" r="30" fill="#A7F3D0" opacity="0.5"/>
  <path d="M410 330 C430 300 470 300 490 330" stroke="#059669" stroke-width="10" stroke-linecap="round"/>
  <path d="M340 330 C360 300 400 300 420 330" stroke="#34D399" stroke-width="10" stroke-linecap="round"/>
  <path d="M150 360 H490" stroke="#BBF7D0" stroke-width="6" stroke-linecap="round" stroke-dasharray="20 18"/>
</svg>

