<svg width="640" height="420" viewBox="0 0 640 420" fill="none" xmlns="http://www.w3.org/2000/svg">
  <rect width="640" height="420" rx="36" fill="#EFF6FF"/>
  <rect x="50" y="70" width="540" height="280" rx="28" fill="#FFFFFF" stroke="#BFDBFE" stroke-width="2"/>
  <rect x="100" y="120" width="440" height="180" rx="20" fill="#DBEAFE"/>
  <rect x="140" y="150" width="160" height="120" rx="16" fill="#BFDBFE"/>
  <rect x="340" y="150" width="160" height="28" rx="14" fill="#2563EB" opacity="0.8"/>
  <rect x="340" y="195" width="130" height="18" rx="9" fill="#3B82F6"/>
  <rect x="340" y="225" width="100" height="18" rx="9" fill="#60A5FA"/>
  <rect x="340" y="255" width="80" height="18" rx="9" fill="#93C5FD"/>
  <circle cx="200" cy="110" r="24" fill="#3B82F6" opacity="0.35"/>
  <circle cx="520" cy="100" r="28" fill="#60A5FA" opacity="0.35"/>
  <path d="M110 320 H530" stroke="#BFDBFE" stroke-width="8" stroke-linecap="round" stroke-dasharray="18 16"/>
  <path d="M250 330 C280 300 320 300 350 330" stroke="#2563EB" stroke-width="9" stroke-linecap="round"/>
  <path d="M360 330 C390 300 430 300 460 330" stroke="#3B82F6" stroke-width="9" stroke-linecap="round"/>
  <rect x="170" y="180" width="100" height="60" rx="12" fill="#1D4ED8"/>
  <rect x="180" y="190" width="80" height="40" rx="10" fill="#EFF6FF"/>
  <path d="M210 210 L230 220 L210 230 Z" fill="#3B82F6"/>
</svg>

