<svg width="640" height="480" viewBox="0 0 640 480" fill="none" xmlns="http://www.w3.org/2000/svg">
  <defs>
    <linearGradient id="bg" x1="0" y1="0" x2="640" y2="480" gradientUnits="userSpaceOnUse">
      <stop stop-color="#A7F3D0"/>
      <stop offset="0.5" stop-color="#ECFDF5"/>
      <stop offset="1" stop-color="#93C5FD"/>
    </linearGradient>
    <linearGradient id="screen" x1="120" y1="120" x2="520" y2="360" gradientUnits="userSpaceOnUse">
      <stop stop-color="#10B981"/>
      <stop offset="1" stop-color="#059669"/>
    </linearGradient>
  </defs>
  <rect width="640" height="480" rx="32" fill="url(#bg)"/>
  <rect x="120" y="100" width="400" height="240" rx="24" fill="white" opacity="0.9"/>
  <rect x="150" y="130" width="340" height="180" rx="16" fill="url(#screen)"/>
  <rect x="260" y="330" width="120" height="18" rx="9" fill="#1E3A8A" opacity="0.3"/>
  <circle cx="200" cy="220" r="44" fill="white" opacity="0.85"/>
  <path d="M180 230 L195 205 L215 240 L230 215 L245 235" stroke="#047857" stroke-width="6" stroke-linecap="round" stroke-linejoin="round"/>
  <rect x="260" y="170" width="180" height="12" rx="6" fill="white" opacity="0.85"/>
  <rect x="260" y="195" width="180" height="12" rx="6" fill="white" opacity="0.7"/>
  <rect x="260" y="220" width="120" height="12" rx="6" fill="white" opacity="0.5"/>
  <circle cx="120" cy="360" r="36" fill="#34D399" opacity="0.35"/>
  <circle cx="540" cy="120" r="28" fill="#60A5FA" opacity="0.5"/>
  <circle cx="580" cy="360" r="52" fill="white" opacity="0.3"/>
</svg>

