<svg width="600" height="480" viewBox="0 0 600 480" fill="none" xmlns="http://www.w3.org/2000/svg">
  <defs>
    <linearGradient id="gradient" x1="0" y1="0" x2="600" y2="480" gradientUnits="userSpaceOnUse">
      <stop offset="0" stop-color="#FDE68A"/>
      <stop offset="1" stop-color="#FDBA74"/>
    </linearGradient>
  </defs>
  <rect width="600" height="480" rx="40" fill="url(#gradient)" opacity="0.4"/>
  <rect x="60" y="80" width="480" height="280" rx="32" fill="white" opacity="0.95"/>
  <rect x="110" y="130" width="380" height="180" rx="18" fill="#E0F2FE"/>
  <rect x="140" y="160" width="160" height="120" rx="12" fill="#BFDBFE"/>
  <rect x="320" y="160" width="140" height="24" rx="12" fill="#FBBF24"/>
  <rect x="320" y="200" width="110" height="16" rx="8" fill="#FCD34D"/>
  <rect x="320" y="230" width="80" height="16" rx="8" fill="#FDE68A"/>
  <circle cx="120" cy="360" r="36" fill="#F97316" opacity="0.3"/>
  <circle cx="520" cy="120" r="24" fill="#2563EB" opacity="0.35"/>
  <path d="M180 400 C220 360 280 360 320 400" stroke="#EA580C" stroke-width="10" stroke-linecap="round"/>
  <path d="M340 400 C380 360 440 360 480 400" stroke="#2563EB" stroke-width="10" stroke-linecap="round"/>
</svg>

